ISO-10303-21;
HEADER;
/* Generated by software containing ST-Developer
 * from STEP Tools, Inc. (www.steptools.com) 
 */

FILE_DESCRIPTION(
/* description */ (''),
/* implementation_level */ '2;1');

FILE_NAME(
/* name */ 'CornerBracket.stp',
/* time_stamp */ '2026-08-08T18:15:39+01:00',
/* author */ ('willi'),
/* organization */ (''),
/* preprocessor_version */ 'ST-DEVELOPER v19.2',
/* originating_system */ 'Autodesk Inventor 2023',
/* authorisation */ '');

FILE_SCHEMA (('AUTOMOTIVE_DESIGN { 1 0 10303 214 3 1 1 }'));
ENDSEC;

DATA;
#10=MECHANICAL_DESIGN_GEOMETRIC_PRESENTATION_REPRESENTATION('',(#13),#1031);
#11=SHAPE_REPRESENTATION_RELATIONSHIP('SRR','None',#1038,#12);
#12=ADVANCED_BREP_SHAPE_REPRESENTATION('',(#14),#1030);
#13=STYLED_ITEM('',(#1047),#14);
#14=MANIFOLD_SOLID_BREP('Solid1',#618);
#15=FACE_BOUND('',#117,.T.);
#16=FACE_BOUND('',#119,.T.);
#17=FACE_BOUND('',#120,.T.);
#18=FACE_BOUND('',#121,.T.);
#19=FACE_BOUND('',#123,.T.);
#20=FACE_BOUND('',#124,.T.);
#21=FACE_BOUND('',#125,.T.);
#22=FACE_BOUND('',#128,.T.);
#23=FACE_BOUND('',#129,.T.);
#24=FACE_BOUND('',#130,.T.);
#25=FACE_BOUND('',#131,.T.);
#26=FACE_BOUND('',#134,.T.);
#27=ELLIPSE('',#661,7.07106781186549,5.00000000000001);
#28=ELLIPSE('',#668,7.07106781186549,5.00000000000001);
#29=ELLIPSE('',#674,7.07106781186549,5.00000000000001);
#30=ELLIPSE('',#680,7.07106781186549,5.00000000000001);
#31=CONICAL_SURFACE('',#658,3.7,0.78539816339745);
#32=CONICAL_SURFACE('',#665,3.7,0.78539816339745);
#33=CONICAL_SURFACE('',#669,3.7,0.78539816339745);
#34=CONICAL_SURFACE('',#675,3.7,0.78539816339745);
#35=CIRCLE('',#656,2.4);
#36=CIRCLE('',#657,2.4);
#37=CIRCLE('',#659,5.);
#38=CIRCLE('',#663,2.4);
#39=CIRCLE('',#664,2.4);
#40=CIRCLE('',#666,5.);
#41=CIRCLE('',#670,2.5);
#42=CIRCLE('',#671,2.5);
#43=CIRCLE('',#672,5.);
#44=CIRCLE('',#676,2.5);
#45=CIRCLE('',#677,2.5);
#46=CIRCLE('',#678,5.);
#47=CIRCLE('',#682,2.5);
#48=CIRCLE('',#684,2.5);
#49=CYLINDRICAL_SURFACE('',#655,2.4);
#50=CYLINDRICAL_SURFACE('',#660,5.00000000000001);
#51=CYLINDRICAL_SURFACE('',#662,2.4);
#52=CYLINDRICAL_SURFACE('',#667,5.00000000000001);
#53=CYLINDRICAL_SURFACE('',#673,5.00000000000001);
#54=CYLINDRICAL_SURFACE('',#679,5.00000000000001);
#55=CYLINDRICAL_SURFACE('',#681,2.5);
#56=CYLINDRICAL_SURFACE('',#683,2.5);
#57=FACE_OUTER_BOUND('',#90,.T.);
#58=FACE_OUTER_BOUND('',#91,.T.);
#59=FACE_OUTER_BOUND('',#92,.T.);
#60=FACE_OUTER_BOUND('',#93,.T.);
#61=FACE_OUTER_BOUND('',#94,.T.);
#62=FACE_OUTER_BOUND('',#95,.T.);
#63=FACE_OUTER_BOUND('',#96,.T.);
#64=FACE_OUTER_BOUND('',#97,.T.);
#65=FACE_OUTER_BOUND('',#98,.T.);
#66=FACE_OUTER_BOUND('',#99,.T.);
#67=FACE_OUTER_BOUND('',#100,.T.);
#68=FACE_OUTER_BOUND('',#101,.T.);
#69=FACE_OUTER_BOUND('',#102,.T.);
#70=FACE_OUTER_BOUND('',#103,.T.);
#71=FACE_OUTER_BOUND('',#104,.T.);
#72=FACE_OUTER_BOUND('',#105,.T.);
#73=FACE_OUTER_BOUND('',#106,.T.);
#74=FACE_OUTER_BOUND('',#107,.T.);
#75=FACE_OUTER_BOUND('',#108,.T.);
#76=FACE_OUTER_BOUND('',#109,.T.);
#77=FACE_OUTER_BOUND('',#110,.T.);
#78=FACE_OUTER_BOUND('',#111,.T.);
#79=FACE_OUTER_BOUND('',#112,.T.);
#80=FACE_OUTER_BOUND('',#113,.T.);
#81=FACE_OUTER_BOUND('',#114,.T.);
#82=FACE_OUTER_BOUND('',#115,.T.);
#83=FACE_OUTER_BOUND('',#116,.T.);
#84=FACE_OUTER_BOUND('',#118,.T.);
#85=FACE_OUTER_BOUND('',#122,.T.);
#86=FACE_OUTER_BOUND('',#126,.T.);
#87=FACE_OUTER_BOUND('',#127,.T.);
#88=FACE_OUTER_BOUND('',#132,.T.);
#89=FACE_OUTER_BOUND('',#133,.T.);
#90=EDGE_LOOP('',(#398,#399,#400,#401));
#91=EDGE_LOOP('',(#402,#403,#404,#405));
#92=EDGE_LOOP('',(#406,#407,#408,#409));
#93=EDGE_LOOP('',(#410,#411,#412,#413));
#94=EDGE_LOOP('',(#414,#415,#416,#417));
#95=EDGE_LOOP('',(#418,#419,#420,#421));
#96=EDGE_LOOP('',(#422,#423,#424,#425));
#97=EDGE_LOOP('',(#426,#427,#428,#429,#430));
#98=EDGE_LOOP('',(#431,#432,#433,#434,#435));
#99=EDGE_LOOP('',(#436,#437,#438,#439));
#100=EDGE_LOOP('',(#440,#441,#442,#443));
#101=EDGE_LOOP('',(#444,#445,#446,#447));
#102=EDGE_LOOP('',(#448,#449,#450,#451));
#103=EDGE_LOOP('',(#452,#453,#454,#455,#456,#457,#458,#459));
#104=EDGE_LOOP('',(#460,#461,#462,#463));
#105=EDGE_LOOP('',(#464,#465,#466,#467));
#106=EDGE_LOOP('',(#468,#469,#470,#471));
#107=EDGE_LOOP('',(#472,#473,#474,#475));
#108=EDGE_LOOP('',(#476,#477,#478,#479));
#109=EDGE_LOOP('',(#480,#481,#482,#483));
#110=EDGE_LOOP('',(#484,#485,#486,#487,#488));
#111=EDGE_LOOP('',(#489,#490,#491,#492));
#112=EDGE_LOOP('',(#493,#494,#495,#496,#497));
#113=EDGE_LOOP('',(#498,#499,#500,#501));
#114=EDGE_LOOP('',(#502,#503,#504,#505,#506));
#115=EDGE_LOOP('',(#507,#508,#509,#510,#511));
#116=EDGE_LOOP('',(#512,#513,#514,#515,#516));
#117=EDGE_LOOP('',(#517,#518,#519));
#118=EDGE_LOOP('',(#520,#521,#522,#523));
#119=EDGE_LOOP('',(#524,#525,#526,#527));
#120=EDGE_LOOP('',(#528));
#121=EDGE_LOOP('',(#529));
#122=EDGE_LOOP('',(#530,#531,#532,#533));
#123=EDGE_LOOP('',(#534,#535,#536,#537));
#124=EDGE_LOOP('',(#538));
#125=EDGE_LOOP('',(#539));
#126=EDGE_LOOP('',(#540,#541,#542,#543));
#127=EDGE_LOOP('',(#544,#545,#546,#547));
#128=EDGE_LOOP('',(#548));
#129=EDGE_LOOP('',(#549));
#130=EDGE_LOOP('',(#550));
#131=EDGE_LOOP('',(#551));
#132=EDGE_LOOP('',(#552,#553,#554,#555));
#133=EDGE_LOOP('',(#556,#557,#558,#559,#560));
#134=EDGE_LOOP('',(#561,#562,#563));
#135=LINE('',#865,#200);
#136=LINE('',#867,#201);
#137=LINE('',#869,#202);
#138=LINE('',#870,#203);
#139=LINE('',#873,#204);
#140=LINE('',#875,#205);
#141=LINE('',#876,#206);
#142=LINE('',#879,#207);
#143=LINE('',#881,#208);
#144=LINE('',#882,#209);
#145=LINE('',#884,#210);
#146=LINE('',#885,#211);
#147=LINE('',#888,#212);
#148=LINE('',#890,#213);
#149=LINE('',#891,#214);
#150=LINE('',#894,#215);
#151=LINE('',#896,#216);
#152=LINE('',#897,#217);
#153=LINE('',#901,#218);
#154=LINE('',#903,#219);
#155=LINE('',#905,#220);
#156=LINE('',#906,#221);
#157=LINE('',#908,#222);
#158=LINE('',#910,#223);
#159=LINE('',#911,#224);
#160=LINE('',#913,#225);
#161=LINE('',#915,#226);
#162=LINE('',#916,#227);
#163=LINE('',#918,#228);
#164=LINE('',#921,#229);
#165=LINE('',#923,#230);
#166=LINE('',#924,#231);
#167=LINE('',#927,#232);
#168=LINE('',#928,#233);
#169=LINE('',#931,#234);
#170=LINE('',#932,#235);
#171=LINE('',#934,#236);
#172=LINE('',#935,#237);
#173=LINE('',#940,#238);
#174=LINE('',#944,#239);
#175=LINE('',#948,#240);
#176=LINE('',#954,#241);
#177=LINE('',#958,#242);
#178=LINE('',#962,#243);
#179=LINE('',#970,#244);
#180=LINE('',#974,#245);
#181=LINE('',#982,#246);
#182=LINE('',#986,#247);
#183=LINE('',#990,#248);
#184=LINE('',#994,#249);
#185=LINE('',#999,#250);
#186=LINE('',#1001,#251);
#187=LINE('',#1003,#252);
#188=LINE('',#1005,#253);
#189=LINE('',#1006,#254);
#190=LINE('',#1009,#255);
#191=LINE('',#1011,#256);
#192=LINE('',#1012,#257);
#193=LINE('',#1015,#258);
#194=LINE('',#1016,#259);
#195=LINE('',#1019,#260);
#196=LINE('',#1020,#261);
#197=LINE('',#1023,#262);
#198=LINE('',#1024,#263);
#199=LINE('',#1026,#264);
#200=VECTOR('',#696,10.);
#201=VECTOR('',#697,10.);
#202=VECTOR('',#698,10.);
#203=VECTOR('',#699,10.);
#204=VECTOR('',#702,10.);
#205=VECTOR('',#703,10.);
#206=VECTOR('',#704,10.);
#207=VECTOR('',#707,10.);
#208=VECTOR('',#708,10.);
#209=VECTOR('',#709,10.);
#210=VECTOR('',#712,10.);
#211=VECTOR('',#713,10.);
#212=VECTOR('',#716,10.);
#213=VECTOR('',#717,10.);
#214=VECTOR('',#718,10.);
#215=VECTOR('',#721,10.);
#216=VECTOR('',#722,10.);
#217=VECTOR('',#723,10.);
#218=VECTOR('',#726,10.);
#219=VECTOR('',#727,10.);
#220=VECTOR('',#728,10.);
#221=VECTOR('',#729,10.);
#222=VECTOR('',#732,10.);
#223=VECTOR('',#733,10.);
#224=VECTOR('',#734,10.);
#225=VECTOR('',#737,10.);
#226=VECTOR('',#738,10.);
#227=VECTOR('',#739,10.);
#228=VECTOR('',#742,10.);
#229=VECTOR('',#745,10.);
#230=VECTOR('',#746,10.);
#231=VECTOR('',#747,10.);
#232=VECTOR('',#750,10.);
#233=VECTOR('',#751,10.);
#234=VECTOR('',#754,10.);
#235=VECTOR('',#755,10.);
#236=VECTOR('',#758,10.);
#237=VECTOR('',#759,10.);
#238=VECTOR('',#764,2.4);
#239=VECTOR('',#769,3.7);
#240=VECTOR('',#774,5.00000000000001);
#241=VECTOR('',#781,2.4);
#242=VECTOR('',#786,3.7);
#243=VECTOR('',#791,5.00000000000001);
#244=VECTOR('',#800,3.7);
#245=VECTOR('',#805,5.00000000000001);
#246=VECTOR('',#814,3.7);
#247=VECTOR('',#819,5.00000000000001);
#248=VECTOR('',#824,2.5);
#249=VECTOR('',#829,2.5);
#250=VECTOR('',#834,10.);
#251=VECTOR('',#835,10.);
#252=VECTOR('',#836,10.);
#253=VECTOR('',#837,10.);
#254=VECTOR('',#838,10.);
#255=VECTOR('',#841,10.);
#256=VECTOR('',#842,10.);
#257=VECTOR('',#843,10.);
#258=VECTOR('',#846,10.);
#259=VECTOR('',#847,10.);
#260=VECTOR('',#850,10.);
#261=VECTOR('',#851,10.);
#262=VECTOR('',#854,10.);
#263=VECTOR('',#855,10.);
#264=VECTOR('',#858,10.);
#265=VERTEX_POINT('',#863);
#266=VERTEX_POINT('',#864);
#267=VERTEX_POINT('',#866);
#268=VERTEX_POINT('',#868);
#269=VERTEX_POINT('',#872);
#270=VERTEX_POINT('',#874);
#271=VERTEX_POINT('',#878);
#272=VERTEX_POINT('',#880);
#273=VERTEX_POINT('',#887);
#274=VERTEX_POINT('',#889);
#275=VERTEX_POINT('',#893);
#276=VERTEX_POINT('',#895);
#277=VERTEX_POINT('',#899);
#278=VERTEX_POINT('',#900);
#279=VERTEX_POINT('',#902);
#280=VERTEX_POINT('',#904);
#281=VERTEX_POINT('',#909);
#282=VERTEX_POINT('',#914);
#283=VERTEX_POINT('',#920);
#284=VERTEX_POINT('',#922);
#285=VERTEX_POINT('',#926);
#286=VERTEX_POINT('',#930);
#287=VERTEX_POINT('',#937);
#288=VERTEX_POINT('',#939);
#289=VERTEX_POINT('',#943);
#290=VERTEX_POINT('',#947);
#291=VERTEX_POINT('',#951);
#292=VERTEX_POINT('',#953);
#293=VERTEX_POINT('',#957);
#294=VERTEX_POINT('',#961);
#295=VERTEX_POINT('',#965);
#296=VERTEX_POINT('',#966);
#297=VERTEX_POINT('',#969);
#298=VERTEX_POINT('',#973);
#299=VERTEX_POINT('',#977);
#300=VERTEX_POINT('',#978);
#301=VERTEX_POINT('',#981);
#302=VERTEX_POINT('',#985);
#303=VERTEX_POINT('',#989);
#304=VERTEX_POINT('',#993);
#305=VERTEX_POINT('',#997);
#306=VERTEX_POINT('',#998);
#307=VERTEX_POINT('',#1000);
#308=VERTEX_POINT('',#1002);
#309=VERTEX_POINT('',#1004);
#310=VERTEX_POINT('',#1008);
#311=VERTEX_POINT('',#1010);
#312=VERTEX_POINT('',#1014);
#313=VERTEX_POINT('',#1018);
#314=VERTEX_POINT('',#1022);
#315=EDGE_CURVE('',#265,#266,#135,.T.);
#316=EDGE_CURVE('',#267,#265,#136,.T.);
#317=EDGE_CURVE('',#268,#267,#137,.T.);
#318=EDGE_CURVE('',#268,#266,#138,.T.);
#319=EDGE_CURVE('',#266,#269,#139,.T.);
#320=EDGE_CURVE('',#270,#268,#140,.T.);
#321=EDGE_CURVE('',#270,#269,#141,.T.);
#322=EDGE_CURVE('',#269,#271,#142,.T.);
#323=EDGE_CURVE('',#270,#272,#143,.T.);
#324=EDGE_CURVE('',#272,#271,#144,.T.);
#325=EDGE_CURVE('',#271,#265,#145,.T.);
#326=EDGE_CURVE('',#267,#272,#146,.T.);
#327=EDGE_CURVE('',#272,#273,#147,.T.);
#328=EDGE_CURVE('',#274,#273,#148,.T.);
#329=EDGE_CURVE('',#267,#274,#149,.T.);
#330=EDGE_CURVE('',#267,#275,#150,.T.);
#331=EDGE_CURVE('',#276,#275,#151,.T.);
#332=EDGE_CURVE('',#268,#276,#152,.T.);
#333=EDGE_CURVE('',#277,#278,#153,.T.);
#334=EDGE_CURVE('',#279,#277,#154,.T.);
#335=EDGE_CURVE('',#279,#280,#155,.T.);
#336=EDGE_CURVE('',#280,#278,#156,.T.);
#337=EDGE_CURVE('',#278,#276,#157,.T.);
#338=EDGE_CURVE('',#280,#281,#158,.T.);
#339=EDGE_CURVE('',#268,#281,#159,.T.);
#340=EDGE_CURVE('',#275,#277,#160,.T.);
#341=EDGE_CURVE('',#282,#267,#161,.T.);
#342=EDGE_CURVE('',#282,#279,#162,.T.);
#343=EDGE_CURVE('',#281,#282,#163,.T.);
#344=EDGE_CURVE('',#283,#281,#164,.T.);
#345=EDGE_CURVE('',#284,#283,#165,.T.);
#346=EDGE_CURVE('',#284,#268,#166,.T.);
#347=EDGE_CURVE('',#285,#274,#167,.T.);
#348=EDGE_CURVE('',#282,#285,#168,.T.);
#349=EDGE_CURVE('',#286,#284,#169,.T.);
#350=EDGE_CURVE('',#286,#270,#170,.T.);
#351=EDGE_CURVE('',#273,#285,#171,.T.);
#352=EDGE_CURVE('',#283,#286,#172,.T.);
#353=EDGE_CURVE('',#287,#287,#35,.T.);
#354=EDGE_CURVE('',#287,#288,#173,.T.);
#355=EDGE_CURVE('',#288,#288,#36,.T.);
#356=EDGE_CURVE('',#288,#289,#174,.T.);
#357=EDGE_CURVE('',#289,#289,#37,.T.);
#358=EDGE_CURVE('',#289,#290,#175,.T.);
#359=EDGE_CURVE('',#290,#290,#27,.T.);
#360=EDGE_CURVE('',#291,#291,#38,.T.);
#361=EDGE_CURVE('',#291,#292,#176,.T.);
#362=EDGE_CURVE('',#292,#292,#39,.T.);
#363=EDGE_CURVE('',#292,#293,#177,.T.);
#364=EDGE_CURVE('',#293,#293,#40,.T.);
#365=EDGE_CURVE('',#293,#294,#178,.T.);
#366=EDGE_CURVE('',#294,#294,#28,.T.);
#367=EDGE_CURVE('',#295,#296,#41,.T.);
#368=EDGE_CURVE('',#296,#295,#42,.T.);
#369=EDGE_CURVE('',#296,#297,#179,.T.);
#370=EDGE_CURVE('',#297,#297,#43,.T.);
#371=EDGE_CURVE('',#297,#298,#180,.T.);
#372=EDGE_CURVE('',#298,#298,#29,.T.);
#373=EDGE_CURVE('',#299,#300,#44,.T.);
#374=EDGE_CURVE('',#300,#299,#45,.T.);
#375=EDGE_CURVE('',#300,#301,#181,.T.);
#376=EDGE_CURVE('',#301,#301,#46,.T.);
#377=EDGE_CURVE('',#301,#302,#182,.T.);
#378=EDGE_CURVE('',#302,#302,#30,.T.);
#379=EDGE_CURVE('',#295,#303,#183,.T.);
#380=EDGE_CURVE('',#303,#303,#47,.T.);
#381=EDGE_CURVE('',#299,#304,#184,.T.);
#382=EDGE_CURVE('',#304,#304,#48,.T.);
#383=EDGE_CURVE('',#305,#306,#185,.T.);
#384=EDGE_CURVE('',#306,#307,#186,.T.);
#385=EDGE_CURVE('',#307,#308,#187,.T.);
#386=EDGE_CURVE('',#308,#309,#188,.T.);
#387=EDGE_CURVE('',#309,#305,#189,.T.);
#388=EDGE_CURVE('',#310,#306,#190,.T.);
#389=EDGE_CURVE('',#311,#310,#191,.T.);
#390=EDGE_CURVE('',#307,#311,#192,.T.);
#391=EDGE_CURVE('',#312,#311,#193,.T.);
#392=EDGE_CURVE('',#308,#312,#194,.T.);
#393=EDGE_CURVE('',#313,#312,#195,.T.);
#394=EDGE_CURVE('',#309,#313,#196,.T.);
#395=EDGE_CURVE('',#314,#313,#197,.T.);
#396=EDGE_CURVE('',#305,#314,#198,.T.);
#397=EDGE_CURVE('',#310,#314,#199,.T.);
#398=ORIENTED_EDGE('',*,*,#315,.F.);
#399=ORIENTED_EDGE('',*,*,#316,.F.);
#400=ORIENTED_EDGE('',*,*,#317,.F.);
#401=ORIENTED_EDGE('',*,*,#318,.T.);
#402=ORIENTED_EDGE('',*,*,#319,.F.);
#403=ORIENTED_EDGE('',*,*,#318,.F.);
#404=ORIENTED_EDGE('',*,*,#320,.F.);
#405=ORIENTED_EDGE('',*,*,#321,.T.);
#406=ORIENTED_EDGE('',*,*,#322,.F.);
#407=ORIENTED_EDGE('',*,*,#321,.F.);
#408=ORIENTED_EDGE('',*,*,#323,.T.);
#409=ORIENTED_EDGE('',*,*,#324,.T.);
#410=ORIENTED_EDGE('',*,*,#325,.F.);
#411=ORIENTED_EDGE('',*,*,#324,.F.);
#412=ORIENTED_EDGE('',*,*,#326,.F.);
#413=ORIENTED_EDGE('',*,*,#316,.T.);
#414=ORIENTED_EDGE('',*,*,#326,.T.);
#415=ORIENTED_EDGE('',*,*,#327,.T.);
#416=ORIENTED_EDGE('',*,*,#328,.F.);
#417=ORIENTED_EDGE('',*,*,#329,.F.);
#418=ORIENTED_EDGE('',*,*,#317,.T.);
#419=ORIENTED_EDGE('',*,*,#330,.T.);
#420=ORIENTED_EDGE('',*,*,#331,.F.);
#421=ORIENTED_EDGE('',*,*,#332,.F.);
#422=ORIENTED_EDGE('',*,*,#333,.F.);
#423=ORIENTED_EDGE('',*,*,#334,.F.);
#424=ORIENTED_EDGE('',*,*,#335,.T.);
#425=ORIENTED_EDGE('',*,*,#336,.T.);
#426=ORIENTED_EDGE('',*,*,#337,.F.);
#427=ORIENTED_EDGE('',*,*,#336,.F.);
#428=ORIENTED_EDGE('',*,*,#338,.T.);
#429=ORIENTED_EDGE('',*,*,#339,.F.);
#430=ORIENTED_EDGE('',*,*,#332,.T.);
#431=ORIENTED_EDGE('',*,*,#340,.F.);
#432=ORIENTED_EDGE('',*,*,#330,.F.);
#433=ORIENTED_EDGE('',*,*,#341,.F.);
#434=ORIENTED_EDGE('',*,*,#342,.T.);
#435=ORIENTED_EDGE('',*,*,#334,.T.);
#436=ORIENTED_EDGE('',*,*,#343,.F.);
#437=ORIENTED_EDGE('',*,*,#338,.F.);
#438=ORIENTED_EDGE('',*,*,#335,.F.);
#439=ORIENTED_EDGE('',*,*,#342,.F.);
#440=ORIENTED_EDGE('',*,*,#339,.T.);
#441=ORIENTED_EDGE('',*,*,#344,.F.);
#442=ORIENTED_EDGE('',*,*,#345,.F.);
#443=ORIENTED_EDGE('',*,*,#346,.T.);
#444=ORIENTED_EDGE('',*,*,#341,.T.);
#445=ORIENTED_EDGE('',*,*,#329,.T.);
#446=ORIENTED_EDGE('',*,*,#347,.F.);
#447=ORIENTED_EDGE('',*,*,#348,.F.);
#448=ORIENTED_EDGE('',*,*,#320,.T.);
#449=ORIENTED_EDGE('',*,*,#346,.F.);
#450=ORIENTED_EDGE('',*,*,#349,.F.);
#451=ORIENTED_EDGE('',*,*,#350,.T.);
#452=ORIENTED_EDGE('',*,*,#351,.F.);
#453=ORIENTED_EDGE('',*,*,#327,.F.);
#454=ORIENTED_EDGE('',*,*,#323,.F.);
#455=ORIENTED_EDGE('',*,*,#350,.F.);
#456=ORIENTED_EDGE('',*,*,#352,.F.);
#457=ORIENTED_EDGE('',*,*,#344,.T.);
#458=ORIENTED_EDGE('',*,*,#343,.T.);
#459=ORIENTED_EDGE('',*,*,#348,.T.);
#460=ORIENTED_EDGE('',*,*,#353,.F.);
#461=ORIENTED_EDGE('',*,*,#354,.T.);
#462=ORIENTED_EDGE('',*,*,#355,.T.);
#463=ORIENTED_EDGE('',*,*,#354,.F.);
#464=ORIENTED_EDGE('',*,*,#355,.F.);
#465=ORIENTED_EDGE('',*,*,#356,.T.);
#466=ORIENTED_EDGE('',*,*,#357,.T.);
#467=ORIENTED_EDGE('',*,*,#356,.F.);
#468=ORIENTED_EDGE('',*,*,#357,.F.);
#469=ORIENTED_EDGE('',*,*,#358,.T.);
#470=ORIENTED_EDGE('',*,*,#359,.F.);
#471=ORIENTED_EDGE('',*,*,#358,.F.);
#472=ORIENTED_EDGE('',*,*,#360,.F.);
#473=ORIENTED_EDGE('',*,*,#361,.T.);
#474=ORIENTED_EDGE('',*,*,#362,.F.);
#475=ORIENTED_EDGE('',*,*,#361,.F.);
#476=ORIENTED_EDGE('',*,*,#362,.T.);
#477=ORIENTED_EDGE('',*,*,#363,.T.);
#478=ORIENTED_EDGE('',*,*,#364,.F.);
#479=ORIENTED_EDGE('',*,*,#363,.F.);
#480=ORIENTED_EDGE('',*,*,#364,.T.);
#481=ORIENTED_EDGE('',*,*,#365,.T.);
#482=ORIENTED_EDGE('',*,*,#366,.F.);
#483=ORIENTED_EDGE('',*,*,#365,.F.);
#484=ORIENTED_EDGE('',*,*,#367,.F.);
#485=ORIENTED_EDGE('',*,*,#368,.F.);
#486=ORIENTED_EDGE('',*,*,#369,.T.);
#487=ORIENTED_EDGE('',*,*,#370,.F.);
#488=ORIENTED_EDGE('',*,*,#369,.F.);
#489=ORIENTED_EDGE('',*,*,#370,.T.);
#490=ORIENTED_EDGE('',*,*,#371,.T.);
#491=ORIENTED_EDGE('',*,*,#372,.F.);
#492=ORIENTED_EDGE('',*,*,#371,.F.);
#493=ORIENTED_EDGE('',*,*,#373,.F.);
#494=ORIENTED_EDGE('',*,*,#374,.F.);
#495=ORIENTED_EDGE('',*,*,#375,.T.);
#496=ORIENTED_EDGE('',*,*,#376,.T.);
#497=ORIENTED_EDGE('',*,*,#375,.F.);
#498=ORIENTED_EDGE('',*,*,#376,.F.);
#499=ORIENTED_EDGE('',*,*,#377,.T.);
#500=ORIENTED_EDGE('',*,*,#378,.F.);
#501=ORIENTED_EDGE('',*,*,#377,.F.);
#502=ORIENTED_EDGE('',*,*,#367,.T.);
#503=ORIENTED_EDGE('',*,*,#368,.T.);
#504=ORIENTED_EDGE('',*,*,#379,.T.);
#505=ORIENTED_EDGE('',*,*,#380,.F.);
#506=ORIENTED_EDGE('',*,*,#379,.F.);
#507=ORIENTED_EDGE('',*,*,#373,.T.);
#508=ORIENTED_EDGE('',*,*,#374,.T.);
#509=ORIENTED_EDGE('',*,*,#381,.T.);
#510=ORIENTED_EDGE('',*,*,#382,.F.);
#511=ORIENTED_EDGE('',*,*,#381,.F.);
#512=ORIENTED_EDGE('',*,*,#383,.T.);
#513=ORIENTED_EDGE('',*,*,#384,.T.);
#514=ORIENTED_EDGE('',*,*,#385,.T.);
#515=ORIENTED_EDGE('',*,*,#386,.T.);
#516=ORIENTED_EDGE('',*,*,#387,.T.);
#517=ORIENTED_EDGE('',*,*,#328,.T.);
#518=ORIENTED_EDGE('',*,*,#351,.T.);
#519=ORIENTED_EDGE('',*,*,#347,.T.);
#520=ORIENTED_EDGE('',*,*,#388,.F.);
#521=ORIENTED_EDGE('',*,*,#389,.F.);
#522=ORIENTED_EDGE('',*,*,#390,.F.);
#523=ORIENTED_EDGE('',*,*,#384,.F.);
#524=ORIENTED_EDGE('',*,*,#322,.T.);
#525=ORIENTED_EDGE('',*,*,#325,.T.);
#526=ORIENTED_EDGE('',*,*,#315,.T.);
#527=ORIENTED_EDGE('',*,*,#319,.T.);
#528=ORIENTED_EDGE('',*,*,#353,.T.);
#529=ORIENTED_EDGE('',*,*,#360,.T.);
#530=ORIENTED_EDGE('',*,*,#390,.T.);
#531=ORIENTED_EDGE('',*,*,#391,.F.);
#532=ORIENTED_EDGE('',*,*,#392,.F.);
#533=ORIENTED_EDGE('',*,*,#385,.F.);
#534=ORIENTED_EDGE('',*,*,#331,.T.);
#535=ORIENTED_EDGE('',*,*,#340,.T.);
#536=ORIENTED_EDGE('',*,*,#333,.T.);
#537=ORIENTED_EDGE('',*,*,#337,.T.);
#538=ORIENTED_EDGE('',*,*,#380,.T.);
#539=ORIENTED_EDGE('',*,*,#382,.T.);
#540=ORIENTED_EDGE('',*,*,#392,.T.);
#541=ORIENTED_EDGE('',*,*,#393,.F.);
#542=ORIENTED_EDGE('',*,*,#394,.F.);
#543=ORIENTED_EDGE('',*,*,#386,.F.);
#544=ORIENTED_EDGE('',*,*,#394,.T.);
#545=ORIENTED_EDGE('',*,*,#395,.F.);
#546=ORIENTED_EDGE('',*,*,#396,.F.);
#547=ORIENTED_EDGE('',*,*,#387,.F.);
#548=ORIENTED_EDGE('',*,*,#359,.T.);
#549=ORIENTED_EDGE('',*,*,#366,.T.);
#550=ORIENTED_EDGE('',*,*,#372,.T.);
#551=ORIENTED_EDGE('',*,*,#378,.T.);
#552=ORIENTED_EDGE('',*,*,#396,.T.);
#553=ORIENTED_EDGE('',*,*,#397,.F.);
#554=ORIENTED_EDGE('',*,*,#388,.T.);
#555=ORIENTED_EDGE('',*,*,#383,.F.);
#556=ORIENTED_EDGE('',*,*,#397,.T.);
#557=ORIENTED_EDGE('',*,*,#395,.T.);
#558=ORIENTED_EDGE('',*,*,#393,.T.);
#559=ORIENTED_EDGE('',*,*,#391,.T.);
#560=ORIENTED_EDGE('',*,*,#389,.T.);
#561=ORIENTED_EDGE('',*,*,#349,.T.);
#562=ORIENTED_EDGE('',*,*,#345,.T.);
#563=ORIENTED_EDGE('',*,*,#352,.T.);
#564=PLANE('',#641);
#565=PLANE('',#642);
#566=PLANE('',#643);
#567=PLANE('',#644);
#568=PLANE('',#645);
#569=PLANE('',#646);
#570=PLANE('',#647);
#571=PLANE('',#648);
#572=PLANE('',#649);
#573=PLANE('',#650);
#574=PLANE('',#651);
#575=PLANE('',#652);
#576=PLANE('',#653);
#577=PLANE('',#654);
#578=PLANE('',#685);
#579=PLANE('',#686);
#580=PLANE('',#687);
#581=PLANE('',#688);
#582=PLANE('',#689);
#583=PLANE('',#690);
#584=PLANE('',#691);
#585=ADVANCED_FACE('',(#57),#564,.F.);
#586=ADVANCED_FACE('',(#58),#565,.F.);
#587=ADVANCED_FACE('',(#59),#566,.F.);
#588=ADVANCED_FACE('',(#60),#567,.F.);
#589=ADVANCED_FACE('',(#61),#568,.F.);
#590=ADVANCED_FACE('',(#62),#569,.F.);
#591=ADVANCED_FACE('',(#63),#570,.F.);
#592=ADVANCED_FACE('',(#64),#571,.F.);
#593=ADVANCED_FACE('',(#65),#572,.F.);
#594=ADVANCED_FACE('',(#66),#573,.F.);
#595=ADVANCED_FACE('',(#67),#574,.F.);
#596=ADVANCED_FACE('',(#68),#575,.F.);
#597=ADVANCED_FACE('',(#69),#576,.F.);
#598=ADVANCED_FACE('',(#70),#577,.F.);
#599=ADVANCED_FACE('',(#71),#49,.F.);
#600=ADVANCED_FACE('',(#72),#31,.F.);
#601=ADVANCED_FACE('',(#73),#50,.F.);
#602=ADVANCED_FACE('',(#74),#51,.F.);
#603=ADVANCED_FACE('',(#75),#32,.F.);
#604=ADVANCED_FACE('',(#76),#52,.F.);
#605=ADVANCED_FACE('',(#77),#33,.F.);
#606=ADVANCED_FACE('',(#78),#53,.F.);
#607=ADVANCED_FACE('',(#79),#34,.F.);
#608=ADVANCED_FACE('',(#80),#54,.F.);
#609=ADVANCED_FACE('',(#81),#55,.F.);
#610=ADVANCED_FACE('',(#82),#56,.F.);
#611=ADVANCED_FACE('',(#83,#15),#578,.T.);
#612=ADVANCED_FACE('',(#84,#16,#17,#18),#579,.T.);
#613=ADVANCED_FACE('',(#85,#19,#20,#21),#580,.T.);
#614=ADVANCED_FACE('',(#86),#581,.T.);
#615=ADVANCED_FACE('',(#87,#22,#23,#24,#25),#582,.T.);
#616=ADVANCED_FACE('',(#88),#583,.T.);
#617=ADVANCED_FACE('',(#89,#26),#584,.T.);
#618=CLOSED_SHELL('',(#585,#586,#587,#588,#589,#590,#591,#592,#593,#594,
#595,#596,#597,#598,#599,#600,#601,#602,#603,#604,#605,#606,#607,#608,#609,
#610,#611,#612,#613,#614,#615,#616,#617));
#619=DERIVED_UNIT_ELEMENT(#622,1.);
#620=DERIVED_UNIT_ELEMENT(#1033,-3.);
#621=DIMENSIONAL_EXPONENTS(0.,1.,0.,0.,0.,0.,0.);
#622=(
CONVERSION_BASED_UNIT('gram',#624)
MASS_UNIT()
NAMED_UNIT(#621)
);
#623=(
MASS_UNIT()
NAMED_UNIT(*)
SI_UNIT(.KILO.,.GRAM.)
);
#624=MASS_MEASURE_WITH_UNIT(MASS_MEASURE(0.001),#623);
#625=DERIVED_UNIT((#619,#620));
#626=MEASURE_REPRESENTATION_ITEM('density measure',
POSITIVE_RATIO_MEASURE(1.),#625);
#627=PROPERTY_DEFINITION_REPRESENTATION(#632,#629);
#628=PROPERTY_DEFINITION_REPRESENTATION(#633,#630);
#629=REPRESENTATION('material name',(#631),#1030);
#630=REPRESENTATION('density',(#626),#1030);
#631=DESCRIPTIVE_REPRESENTATION_ITEM('Generic','Generic');
#632=PROPERTY_DEFINITION('material property','material name',#1040);
#633=PROPERTY_DEFINITION('material property','density of part',#1040);
#634=DATE_TIME_ROLE('creation_date');
#635=APPLIED_DATE_AND_TIME_ASSIGNMENT(#636,#634,(#1040));
#636=DATE_AND_TIME(#637,#638);
#637=CALENDAR_DATE(2025,9,9);
#638=LOCAL_TIME(0,0,0.,#639);
#639=COORDINATED_UNIVERSAL_TIME_OFFSET(0,0,.BEHIND.);
#640=AXIS2_PLACEMENT_3D('',#861,#692,#693);
#641=AXIS2_PLACEMENT_3D('',#862,#694,#695);
#642=AXIS2_PLACEMENT_3D('',#871,#700,#701);
#643=AXIS2_PLACEMENT_3D('',#877,#705,#706);
#644=AXIS2_PLACEMENT_3D('',#883,#710,#711);
#645=AXIS2_PLACEMENT_3D('',#886,#714,#715);
#646=AXIS2_PLACEMENT_3D('',#892,#719,#720);
#647=AXIS2_PLACEMENT_3D('',#898,#724,#725);
#648=AXIS2_PLACEMENT_3D('',#907,#730,#731);
#649=AXIS2_PLACEMENT_3D('',#912,#735,#736);
#650=AXIS2_PLACEMENT_3D('',#917,#740,#741);
#651=AXIS2_PLACEMENT_3D('',#919,#743,#744);
#652=AXIS2_PLACEMENT_3D('',#925,#748,#749);
#653=AXIS2_PLACEMENT_3D('',#929,#752,#753);
#654=AXIS2_PLACEMENT_3D('',#933,#756,#757);
#655=AXIS2_PLACEMENT_3D('',#936,#760,#761);
#656=AXIS2_PLACEMENT_3D('',#938,#762,#763);
#657=AXIS2_PLACEMENT_3D('',#941,#765,#766);
#658=AXIS2_PLACEMENT_3D('',#942,#767,#768);
#659=AXIS2_PLACEMENT_3D('',#945,#770,#771);
#660=AXIS2_PLACEMENT_3D('',#946,#772,#773);
#661=AXIS2_PLACEMENT_3D('',#949,#775,#776);
#662=AXIS2_PLACEMENT_3D('',#950,#777,#778);
#663=AXIS2_PLACEMENT_3D('',#952,#779,#780);
#664=AXIS2_PLACEMENT_3D('',#955,#782,#783);
#665=AXIS2_PLACEMENT_3D('',#956,#784,#785);
#666=AXIS2_PLACEMENT_3D('',#959,#787,#788);
#667=AXIS2_PLACEMENT_3D('',#960,#789,#790);
#668=AXIS2_PLACEMENT_3D('',#963,#792,#793);
#669=AXIS2_PLACEMENT_3D('',#964,#794,#795);
#670=AXIS2_PLACEMENT_3D('',#967,#796,#797);
#671=AXIS2_PLACEMENT_3D('',#968,#798,#799);
#672=AXIS2_PLACEMENT_3D('',#971,#801,#802);
#673=AXIS2_PLACEMENT_3D('',#972,#803,#804);
#674=AXIS2_PLACEMENT_3D('',#975,#806,#807);
#675=AXIS2_PLACEMENT_3D('',#976,#808,#809);
#676=AXIS2_PLACEMENT_3D('',#979,#810,#811);
#677=AXIS2_PLACEMENT_3D('',#980,#812,#813);
#678=AXIS2_PLACEMENT_3D('',#983,#815,#816);
#679=AXIS2_PLACEMENT_3D('',#984,#817,#818);
#680=AXIS2_PLACEMENT_3D('',#987,#820,#821);
#681=AXIS2_PLACEMENT_3D('',#988,#822,#823);
#682=AXIS2_PLACEMENT_3D('',#991,#825,#826);
#683=AXIS2_PLACEMENT_3D('',#992,#827,#828);
#684=AXIS2_PLACEMENT_3D('',#995,#830,#831);
#685=AXIS2_PLACEMENT_3D('',#996,#832,#833);
#686=AXIS2_PLACEMENT_3D('',#1007,#839,#840);
#687=AXIS2_PLACEMENT_3D('',#1013,#844,#845);
#688=AXIS2_PLACEMENT_3D('',#1017,#848,#849);
#689=AXIS2_PLACEMENT_3D('',#1021,#852,#853);
#690=AXIS2_PLACEMENT_3D('',#1025,#856,#857);
#691=AXIS2_PLACEMENT_3D('',#1027,#859,#860);
#692=DIRECTION('axis',(0.,0.,1.));
#693=DIRECTION('refdir',(1.,0.,0.));
#694=DIRECTION('center_axis',(-6.73224668110301E-32,-1.,-3.03193436443818E-16));
#695=DIRECTION('ref_axis',(-1.,0.,2.22044604925031E-16));
#696=DIRECTION('',(1.,0.,-2.22044604925031E-16));
#697=DIRECTION('',(-2.22044604925031E-16,3.03193436443818E-16,-1.));
#698=DIRECTION('',(-1.,0.,2.22044604925031E-16));
#699=DIRECTION('',(-2.22044604925031E-16,3.03193436443818E-16,-1.));
#700=DIRECTION('center_axis',(1.,1.41553282310647E-16,-2.22044604925031E-16));
#701=DIRECTION('ref_axis',(1.41553282310647E-16,-1.,-3.02788097625043E-16));
#702=DIRECTION('',(-1.41553282310647E-16,1.,3.06161699786838E-16));
#703=DIRECTION('',(1.41553282310647E-16,-1.,-3.02788097625043E-16));
#704=DIRECTION('',(-2.22044604925031E-16,3.03193436443818E-16,-1.));
#705=DIRECTION('center_axis',(-1.23207501922021E-16,1.,3.03193436443818E-16));
#706=DIRECTION('ref_axis',(1.,1.23207501922021E-16,-2.22044604925031E-16));
#707=DIRECTION('',(-1.,-1.23207501922021E-16,2.22044604925031E-16));
#708=DIRECTION('',(-1.,0.,2.22044604925031E-16));
#709=DIRECTION('',(-2.22044604925031E-16,3.03193436443818E-16,-1.));
#710=DIRECTION('center_axis',(-1.,-2.83106564621294E-16,2.22044604925031E-16));
#711=DIRECTION('ref_axis',(-2.83106564621294E-16,1.,3.02788097625043E-16));
#712=DIRECTION('',(2.83106564621294E-16,-1.,-3.06161699786838E-16));
#713=DIRECTION('',(-2.83106564621294E-16,1.,3.02788097625043E-16));
#714=DIRECTION('center_axis',(-2.22044604925031E-16,3.02788097625043E-16,
-1.));
#715=DIRECTION('ref_axis',(-6.72324635131544E-32,-1.,-3.02788097625043E-16));
#716=DIRECTION('',(-1.,0.,2.22044604925031E-16));
#717=DIRECTION('',(6.72324635131544E-32,1.,3.02788097625043E-16));
#718=DIRECTION('',(-1.,0.,2.22044604925031E-16));
#719=DIRECTION('center_axis',(-2.22044604925031E-16,3.02788097625043E-16,
-1.));
#720=DIRECTION('ref_axis',(-6.72324635131544E-32,-1.,-3.02788097625043E-16));
#721=DIRECTION('',(-4.75217412783742E-32,-1.,-2.14018896313283E-16));
#722=DIRECTION('',(-1.,0.,2.22044604925031E-16));
#723=DIRECTION('',(-4.75217412783742E-32,-1.,-2.14018896313283E-16));
#724=DIRECTION('center_axis',(2.22044604925031E-16,-2.14018896313283E-16,
1.));
#725=DIRECTION('ref_axis',(-1.,0.,2.22044604925031E-16));
#726=DIRECTION('',(1.,0.,-2.22044604925031E-16));
#727=DIRECTION('',(-4.75217412783742E-32,-1.,-2.14018896313283E-16));
#728=DIRECTION('',(1.,0.,-2.22044604925031E-16));
#729=DIRECTION('',(-4.75217412783742E-32,-1.,-2.14018896313283E-16));
#730=DIRECTION('center_axis',(1.,0.,-2.22044604925031E-16));
#731=DIRECTION('ref_axis',(2.22044604925031E-16,-2.01858731750029E-16,1.));
#732=DIRECTION('',(-2.22044604925031E-16,1.22464679914735E-16,-1.));
#733=DIRECTION('',(-2.22044604925031E-16,2.01858731750029E-16,-1.));
#734=DIRECTION('',(2.22044604925031E-16,-2.01858731750028E-16,1.));
#735=DIRECTION('center_axis',(-1.,0.,2.22044604925031E-16));
#736=DIRECTION('ref_axis',(-2.22044604925031E-16,2.01858731750029E-16,-1.));
#737=DIRECTION('',(2.22044604925031E-16,-1.22464679914735E-16,1.));
#738=DIRECTION('',(-2.22044604925031E-16,2.01858731750028E-16,-1.));
#739=DIRECTION('',(2.22044604925031E-16,-2.01858731750029E-16,1.));
#740=DIRECTION('center_axis',(4.48216423421029E-32,1.,2.01858731750028E-16));
#741=DIRECTION('ref_axis',(1.,0.,-2.22044604925031E-16));
#742=DIRECTION('',(-1.,0.,2.22044604925031E-16));
#743=DIRECTION('center_axis',(-4.48216423421029E-32,-1.,-2.01858731750028E-16));
#744=DIRECTION('ref_axis',(2.22044604925031E-16,-2.01858731750028E-16,1.));
#745=DIRECTION('',(-1.,0.,2.22044604925031E-16));
#746=DIRECTION('',(2.22044604925031E-16,-2.01858731750028E-16,1.));
#747=DIRECTION('',(-1.,0.,2.22044604925031E-16));
#748=DIRECTION('center_axis',(-4.48216423421029E-32,-1.,-2.01858731750028E-16));
#749=DIRECTION('ref_axis',(2.22044604925031E-16,-2.01858731750028E-16,1.));
#750=DIRECTION('',(-2.22044604925031E-16,2.01858731750028E-16,-1.));
#751=DIRECTION('',(-1.,0.,2.22044604925031E-16));
#752=DIRECTION('center_axis',(-2.22044604925031E-16,3.02788097625043E-16,
-1.));
#753=DIRECTION('ref_axis',(-6.72324635131544E-32,-1.,-3.02788097625043E-16));
#754=DIRECTION('',(-6.72324635131544E-32,-1.,-3.02788097625043E-16));
#755=DIRECTION('',(-1.,0.,2.22044604925031E-16));
#756=DIRECTION('center_axis',(1.57009245868378E-16,0.707106781186547,0.707106781186548));
#757=DIRECTION('ref_axis',(-1.57009245868377E-16,0.707106781186548,-0.707106781186547));
#758=DIRECTION('',(1.57009245868377E-16,-0.707106781186548,0.707106781186547));
#759=DIRECTION('',(-1.57009245868377E-16,0.707106781186548,-0.707106781186547));
#760=DIRECTION('center_axis',(2.22044604925031E-16,-4.44089209850063E-16,
1.));
#761=DIRECTION('ref_axis',(1.,0.,-2.22044604925031E-16));
#762=DIRECTION('center_axis',(2.22044604925031E-16,-3.06161699786838E-16,
1.));
#763=DIRECTION('ref_axis',(1.,0.,-2.22044604925031E-16));
#764=DIRECTION('',(2.22044604925031E-16,-4.44089209850063E-16,1.));
#765=DIRECTION('center_axis',(2.22044604925031E-16,-4.44089209850063E-16,
1.));
#766=DIRECTION('ref_axis',(-9.86076131526265E-32,-1.,-4.44089209850063E-16));
#767=DIRECTION('center_axis',(2.22044604925031E-16,-4.44089209850063E-16,
1.));
#768=DIRECTION('ref_axis',(1.,0.,-2.22044604925031E-16));
#769=DIRECTION('',(-0.707106781186548,-4.00614097360304E-16,0.707106781186547));
#770=DIRECTION('center_axis',(2.22044604925031E-16,-4.44089209850063E-16,
1.));
#771=DIRECTION('ref_axis',(-9.86076131526264E-32,-1.,-4.44089209850063E-16));
#772=DIRECTION('center_axis',(2.22044604925031E-16,-4.44089209850063E-16,
1.));
#773=DIRECTION('ref_axis',(1.,0.,-2.22044604925031E-16));
#774=DIRECTION('',(2.22044604925031E-16,-4.44089209850063E-16,1.));
#775=DIRECTION('center_axis',(-1.57009245868378E-16,-0.707106781186547,
-0.707106781186548));
#776=DIRECTION('ref_axis',(-1.57009245868377E-16,0.707106781186548,-0.707106781186547));
#777=DIRECTION('center_axis',(-2.22044604925031E-16,4.44089209850063E-16,
-1.));
#778=DIRECTION('ref_axis',(-1.,0.,2.22044604925031E-16));
#779=DIRECTION('center_axis',(2.22044604925031E-16,-3.06161699786838E-16,
1.));
#780=DIRECTION('ref_axis',(-1.,0.,2.22044604925031E-16));
#781=DIRECTION('',(2.22044604925031E-16,-4.44089209850063E-16,1.));
#782=DIRECTION('center_axis',(-2.22044604925031E-16,4.44089209850063E-16,
-1.));
#783=DIRECTION('ref_axis',(-9.86076131526265E-32,-1.,-4.44089209850063E-16));
#784=DIRECTION('center_axis',(2.22044604925031E-16,-4.44089209850063E-16,
1.));
#785=DIRECTION('ref_axis',(-1.,0.,2.22044604925031E-16));
#786=DIRECTION('',(0.707106781186549,-4.00614097360304E-16,0.707106781186546));
#787=DIRECTION('center_axis',(-2.22044604925031E-16,4.44089209850063E-16,
-1.));
#788=DIRECTION('ref_axis',(-9.86076131526264E-32,-1.,-4.44089209850063E-16));
#789=DIRECTION('center_axis',(-2.22044604925031E-16,4.44089209850063E-16,
-1.));
#790=DIRECTION('ref_axis',(-1.,0.,2.22044604925031E-16));
#791=DIRECTION('',(2.22044604925031E-16,-4.44089209850063E-16,1.));
#792=DIRECTION('center_axis',(-1.57009245868378E-16,-0.707106781186547,
-0.707106781186548));
#793=DIRECTION('ref_axis',(-1.57009245868377E-16,0.707106781186548,-0.707106781186547));
#794=DIRECTION('center_axis',(0.,1.,0.));
#795=DIRECTION('ref_axis',(1.,0.,-2.22044604925031E-16));
#796=DIRECTION('center_axis',(0.,1.,0.));
#797=DIRECTION('ref_axis',(-2.22044604925031E-16,0.,-1.));
#798=DIRECTION('center_axis',(0.,1.,0.));
#799=DIRECTION('ref_axis',(-2.22044604925031E-16,0.,-1.));
#800=DIRECTION('',(-0.707106781186549,0.707106781186546,7.04136402448283E-17));
#801=DIRECTION('center_axis',(0.,-1.,0.));
#802=DIRECTION('ref_axis',(-2.22044604925031E-16,0.,-1.));
#803=DIRECTION('center_axis',(0.,-1.,0.));
#804=DIRECTION('ref_axis',(1.,0.,-2.22044604925031E-16));
#805=DIRECTION('',(0.,1.,0.));
#806=DIRECTION('center_axis',(-1.57009245868378E-16,-0.707106781186547,
-0.707106781186548));
#807=DIRECTION('ref_axis',(1.57009245868377E-16,-0.707106781186548,0.707106781186547));
#808=DIRECTION('center_axis',(0.,1.,0.));
#809=DIRECTION('ref_axis',(-1.,0.,2.22044604925031E-16));
#810=DIRECTION('center_axis',(0.,1.,0.));
#811=DIRECTION('ref_axis',(-2.22044604925031E-16,0.,-1.));
#812=DIRECTION('center_axis',(0.,1.,0.));
#813=DIRECTION('ref_axis',(-2.22044604925031E-16,0.,-1.));
#814=DIRECTION('',(0.707106781186549,0.707106781186546,-2.43604851491927E-16));
#815=DIRECTION('center_axis',(0.,1.,0.));
#816=DIRECTION('ref_axis',(-2.22044604925031E-16,0.,-1.));
#817=DIRECTION('center_axis',(0.,1.,0.));
#818=DIRECTION('ref_axis',(-1.,0.,2.22044604925031E-16));
#819=DIRECTION('',(0.,1.,0.));
#820=DIRECTION('center_axis',(-1.57009245868378E-16,-0.707106781186547,
-0.707106781186548));
#821=DIRECTION('ref_axis',(1.57009245868377E-16,-0.707106781186548,0.707106781186547));
#822=DIRECTION('center_axis',(0.,-1.,0.));
#823=DIRECTION('ref_axis',(-2.22044604925031E-16,0.,-1.));
#824=DIRECTION('',(0.,-1.,0.));
#825=DIRECTION('center_axis',(2.71926214689378E-32,1.,1.22464679914735E-16));
#826=DIRECTION('ref_axis',(-2.22044604925031E-16,0.,-1.));
#827=DIRECTION('center_axis',(0.,-1.,0.));
#828=DIRECTION('ref_axis',(-2.22044604925031E-16,0.,-1.));
#829=DIRECTION('',(0.,-1.,0.));
#830=DIRECTION('center_axis',(2.71926214689378E-32,1.,1.22464679914735E-16));
#831=DIRECTION('ref_axis',(-2.22044604925031E-16,0.,-1.));
#832=DIRECTION('center_axis',(-1.,0.,2.22044604925031E-16));
#833=DIRECTION('ref_axis',(2.22044604925031E-16,0.,1.));
#834=DIRECTION('',(-2.22044604925031E-16,0.,-1.));
#835=DIRECTION('',(-6.79815536723445E-32,-1.,-3.06161699786838E-16));
#836=DIRECTION('',(2.22044604925031E-16,-1.22464679914735E-16,1.));
#837=DIRECTION('',(0.,1.,0.));
#838=DIRECTION('',(-1.57009245868377E-16,0.707106781186548,-0.707106781186547));
#839=DIRECTION('center_axis',(-2.22044604925031E-16,3.06161699786838E-16,
-1.));
#840=DIRECTION('ref_axis',(6.79815536723445E-32,1.,3.06161699786838E-16));
#841=DIRECTION('',(-1.,0.,2.22044604925031E-16));
#842=DIRECTION('',(6.79815536723445E-32,1.,3.06161699786838E-16));
#843=DIRECTION('',(1.,0.,-2.22044604925031E-16));
#844=DIRECTION('center_axis',(-2.71926214689378E-32,-1.,-1.22464679914735E-16));
#845=DIRECTION('ref_axis',(-2.22044604925031E-16,1.22464679914735E-16,-1.));
#846=DIRECTION('',(-2.22044604925031E-16,1.22464679914735E-16,-1.));
#847=DIRECTION('',(1.,0.,-2.22044604925031E-16));
#848=DIRECTION('center_axis',(2.22044604925031E-16,0.,1.));
#849=DIRECTION('ref_axis',(0.,-1.,0.));
#850=DIRECTION('',(0.,-1.,0.));
#851=DIRECTION('',(1.,0.,-2.22044604925031E-16));
#852=DIRECTION('center_axis',(1.57009245868378E-16,0.707106781186547,0.707106781186548));
#853=DIRECTION('ref_axis',(1.57009245868377E-16,-0.707106781186548,0.707106781186547));
#854=DIRECTION('',(1.57009245868377E-16,-0.707106781186548,0.707106781186547));
#855=DIRECTION('',(1.,0.,-2.22044604925031E-16));
#856=DIRECTION('center_axis',(0.,1.,0.));
#857=DIRECTION('ref_axis',(2.22044604925031E-16,0.,1.));
#858=DIRECTION('',(2.22044604925031E-16,0.,1.));
#859=DIRECTION('center_axis',(1.,0.,-2.22044604925031E-16));
#860=DIRECTION('ref_axis',(-2.22044604925031E-16,0.,-1.));
#861=CARTESIAN_POINT('',(0.,0.,0.));
#862=CARTESIAN_POINT('Origin',(8.66317896661926,8.,8.));
#863=CARTESIAN_POINT('',(-9.35882468260374,8.00000000000001,4.29852257846169E-15));
#864=CARTESIAN_POINT('',(8.66317896661926,8.00000000000001,2.96833898212499E-16));
#865=CARTESIAN_POINT('',(4.33158948330963,8.00000000000001,1.25863997373141E-15));
#866=CARTESIAN_POINT('',(-9.35882468260374,8.,8.00000000000001));
#867=CARTESIAN_POINT('',(-9.35882468260374,8.,8.00000000000001));
#868=CARTESIAN_POINT('',(8.66317896661926,8.,8.00000000000001));
#869=CARTESIAN_POINT('',(14.3315894833096,8.,8.));
#870=CARTESIAN_POINT('',(8.66317896661926,8.,8.));
#871=CARTESIAN_POINT('Origin',(8.66317896661926,23.6862915010152,8.00000000000001));
#872=CARTESIAN_POINT('',(8.66317896661926,23.6862915010152,5.84794902133828E-15));
#873=CARTESIAN_POINT('',(8.66317896661926,11.8431457505076,1.96216843515023E-15));
#874=CARTESIAN_POINT('',(8.66317896661926,23.6862915010152,8.00000000000001));
#875=CARTESIAN_POINT('',(8.66317896661926,23.6862915010152,8.00000000000001));
#876=CARTESIAN_POINT('',(8.66317896661926,23.6862915010152,8.00000000000001));
#877=CARTESIAN_POINT('Origin',(-9.35882468260374,23.6862915010152,8.00000000000001));
#878=CARTESIAN_POINT('',(-9.35882468260374,23.6862915010152,9.84963770158747E-15));
#879=CARTESIAN_POINT('',(-4.67941234130187,23.6862915010152,8.25548792466921E-15));
#880=CARTESIAN_POINT('',(-9.35882468260374,23.6862915010152,8.00000000000001));
#881=CARTESIAN_POINT('',(20.,23.6862915010152,8.));
#882=CARTESIAN_POINT('',(-9.35882468260374,23.6862915010152,8.00000000000001));
#883=CARTESIAN_POINT('Origin',(-9.35882468260374,8.,8.00000000000001));
#884=CARTESIAN_POINT('',(-9.35882468260374,4.,3.18829955383653E-15));
#885=CARTESIAN_POINT('',(-9.35882468260374,15.8431457505076,8.00000000000001));
#886=CARTESIAN_POINT('Origin',(20.,23.6862915010152,8.00000000000001));
#887=CARTESIAN_POINT('',(-20.,23.6862915010152,8.00000000000001));
#888=CARTESIAN_POINT('',(20.,23.6862915010152,8.));
#889=CARTESIAN_POINT('',(-20.,8.,8.00000000000001));
#890=CARTESIAN_POINT('',(-20.,21.3431457505076,8.00000000000001));
#891=CARTESIAN_POINT('',(20.,8.,8.));
#892=CARTESIAN_POINT('Origin',(20.,23.6862915010152,8.00000000000001));
#893=CARTESIAN_POINT('',(-9.35882468260374,-1.11022302462516E-15,8.00000000000001));
#894=CARTESIAN_POINT('',(-9.35882468260374,8.,8.00000000000001));
#895=CARTESIAN_POINT('',(8.66317896661926,-1.11022302462516E-15,8.));
#896=CARTESIAN_POINT('',(-4.67941234130187,-5.55111512312578E-16,8.00000000000001));
#897=CARTESIAN_POINT('',(8.66317896661926,8.,8.00000000000001));
#898=CARTESIAN_POINT('Origin',(8.66317896661927,8.,23.8522231014486));
#899=CARTESIAN_POINT('',(-9.35882468260373,-2.22044604925031E-15,23.8522231014486));
#900=CARTESIAN_POINT('',(8.66317896661927,-2.22044604925031E-15,23.8522231014486));
#901=CARTESIAN_POINT('',(4.33158948330964,-2.77555756156289E-15,23.8522231014486));
#902=CARTESIAN_POINT('',(-9.35882468260373,8.,23.8522231014486));
#903=CARTESIAN_POINT('',(-9.35882468260373,8.,23.8522231014486));
#904=CARTESIAN_POINT('',(8.66317896661927,8.,23.8522231014486));
#905=CARTESIAN_POINT('',(-9.35882468260373,8.,23.8522231014486));
#906=CARTESIAN_POINT('',(8.66317896661927,8.,23.8522231014486));
#907=CARTESIAN_POINT('Origin',(8.66317896661926,8.,8.00000000000001));
#908=CARTESIAN_POINT('',(8.66317896661927,-2.77555756156289E-15,23.));
#909=CARTESIAN_POINT('',(8.66317896661927,8.,23.6862915010152));
#910=CARTESIAN_POINT('',(8.66317896661927,8.,23.8522231014486));
#911=CARTESIAN_POINT('',(8.66317896661926,8.,8.00000000000001));
#912=CARTESIAN_POINT('Origin',(-9.35882468260373,8.,23.8522231014486));
#913=CARTESIAN_POINT('',(-9.35882468260373,-3.33066907387547E-15,30.9261115507243));
#914=CARTESIAN_POINT('',(-9.35882468260373,8.,23.6862915010152));
#915=CARTESIAN_POINT('',(-9.35882468260374,8.,15.9261115507243));
#916=CARTESIAN_POINT('',(-9.35882468260374,8.,8.00000000000001));
#917=CARTESIAN_POINT('Origin',(-0.347822857992236,8.,15.9261115507243));
#918=CARTESIAN_POINT('',(20.,8.,23.6862915010152));
#919=CARTESIAN_POINT('Origin',(20.,8.,8.));
#920=CARTESIAN_POINT('',(20.,8.,23.6862915010152));
#921=CARTESIAN_POINT('',(20.,8.,23.6862915010152));
#922=CARTESIAN_POINT('',(20.,8.,8.));
#923=CARTESIAN_POINT('',(20.,8.,13.5));
#924=CARTESIAN_POINT('',(20.,8.,8.));
#925=CARTESIAN_POINT('Origin',(20.,8.,8.));
#926=CARTESIAN_POINT('',(-20.,8.,23.6862915010152));
#927=CARTESIAN_POINT('',(-20.,8.,13.5));
#928=CARTESIAN_POINT('',(20.,8.,23.6862915010152));
#929=CARTESIAN_POINT('Origin',(20.,23.6862915010152,8.00000000000001));
#930=CARTESIAN_POINT('',(20.,23.6862915010152,8.));
#931=CARTESIAN_POINT('',(20.,21.3431457505076,8.00000000000001));
#932=CARTESIAN_POINT('',(20.,23.6862915010152,8.));
#933=CARTESIAN_POINT('Origin',(20.,8.,23.6862915010152));
#934=CARTESIAN_POINT('',(-20.,11.9215728752538,19.7647186257614));
#935=CARTESIAN_POINT('',(20.,11.9215728752538,19.7647186257614));
#936=CARTESIAN_POINT('Origin',(9.99999999999999,30.,2.50000000000002));
#937=CARTESIAN_POINT('',(7.6,30.,1.11022302462516E-14));
#938=CARTESIAN_POINT('Origin',(9.99999999999999,30.,1.11022302462516E-14));
#939=CARTESIAN_POINT('',(7.6,30.,5.00000000000002));
#940=CARTESIAN_POINT('',(7.6,30.,2.50000000000002));
#941=CARTESIAN_POINT('Origin',(9.99999999999999,30.,5.00000000000002));
#942=CARTESIAN_POINT('Origin',(9.99999999999999,30.,6.30000000000001));
#943=CARTESIAN_POINT('',(5.,30.,7.60000000000001));
#944=CARTESIAN_POINT('',(6.3,30.,6.30000000000001));
#945=CARTESIAN_POINT('Origin',(10.,30.,7.60000000000001));
#946=CARTESIAN_POINT('Origin',(10.,30.,22.6));
#947=CARTESIAN_POINT('',(4.99999999999999,30.,13.));
#948=CARTESIAN_POINT('',(4.99999999999999,30.,22.6));
#949=CARTESIAN_POINT('Origin',(10.,30.,13.));
#950=CARTESIAN_POINT('Origin',(-9.99999999999999,30.,2.50000000000002));
#951=CARTESIAN_POINT('',(-7.6,30.,1.4432899320127E-14));
#952=CARTESIAN_POINT('Origin',(-9.99999999999999,30.,1.55431223447522E-14));
#953=CARTESIAN_POINT('',(-7.6,30.,5.00000000000002));
#954=CARTESIAN_POINT('',(-7.6,30.,2.50000000000002));
#955=CARTESIAN_POINT('Origin',(-9.99999999999999,30.,5.00000000000002));
#956=CARTESIAN_POINT('Origin',(-9.99999999999999,30.,6.30000000000001));
#957=CARTESIAN_POINT('',(-4.99999999999999,30.,7.60000000000001));
#958=CARTESIAN_POINT('',(-6.3,30.,6.30000000000001));
#959=CARTESIAN_POINT('Origin',(-9.99999999999999,30.,7.60000000000001));
#960=CARTESIAN_POINT('Origin',(-9.99999999999999,30.,22.6));
#961=CARTESIAN_POINT('',(-4.99999999999998,30.,13.));
#962=CARTESIAN_POINT('',(-4.99999999999998,30.,22.6));
#963=CARTESIAN_POINT('Origin',(-9.99999999999999,30.,13.));
#964=CARTESIAN_POINT('Origin',(10.,6.3,30.));
#965=CARTESIAN_POINT('',(10.,5.10000000000001,32.5));
#966=CARTESIAN_POINT('',(7.5,5.1,30.));
#967=CARTESIAN_POINT('Origin',(10.,5.10000000000001,30.));
#968=CARTESIAN_POINT('Origin',(10.,5.10000000000001,30.));
#969=CARTESIAN_POINT('',(5.,7.6,30.));
#970=CARTESIAN_POINT('',(6.3,6.3,30.));
#971=CARTESIAN_POINT('Origin',(10.,7.6,30.));
#972=CARTESIAN_POINT('Origin',(10.,22.6,30.));
#973=CARTESIAN_POINT('',(4.99999999999999,13.,30.));
#974=CARTESIAN_POINT('',(4.99999999999999,22.6,30.));
#975=CARTESIAN_POINT('Origin',(10.,13.,30.));
#976=CARTESIAN_POINT('Origin',(-9.99999999999999,6.3,30.));
#977=CARTESIAN_POINT('',(-9.99999999999999,5.10000000000001,32.5));
#978=CARTESIAN_POINT('',(-7.49999999999999,5.10000000000001,30.));
#979=CARTESIAN_POINT('Origin',(-9.99999999999999,5.10000000000001,30.));
#980=CARTESIAN_POINT('Origin',(-9.99999999999999,5.10000000000001,30.));
#981=CARTESIAN_POINT('',(-4.99999999999999,7.6,30.));
#982=CARTESIAN_POINT('',(-6.29999999999999,6.3,30.));
#983=CARTESIAN_POINT('Origin',(-9.99999999999999,7.6,30.));
#984=CARTESIAN_POINT('Origin',(-9.99999999999999,22.6,30.));
#985=CARTESIAN_POINT('',(-4.99999999999998,13.,30.));
#986=CARTESIAN_POINT('',(-4.99999999999998,22.6,30.));
#987=CARTESIAN_POINT('Origin',(-9.99999999999999,13.,30.));
#988=CARTESIAN_POINT('Origin',(10.,38.,30.));
#989=CARTESIAN_POINT('',(10.,-4.44089209850063E-15,32.5));
#990=CARTESIAN_POINT('',(10.,38.,32.5));
#991=CARTESIAN_POINT('Origin',(10.,-4.44089209850063E-15,30.));
#992=CARTESIAN_POINT('Origin',(-9.99999999999999,38.,30.));
#993=CARTESIAN_POINT('',(-9.99999999999999,-4.44089209850063E-15,32.5));
#994=CARTESIAN_POINT('',(-9.99999999999999,38.,32.5));
#995=CARTESIAN_POINT('Origin',(-9.99999999999999,-4.44089209850063E-15,
30.));
#996=CARTESIAN_POINT('Origin',(-20.,19.,19.));
#997=CARTESIAN_POINT('',(-20.,38.,5.00000000000002));
#998=CARTESIAN_POINT('',(-20.,38.,1.60750366904005E-14));
#999=CARTESIAN_POINT('',(-20.,38.,1.60982338570648E-14));
#1000=CARTESIAN_POINT('',(-20.,0.,4.44089209850063E-15));
#1001=CARTESIAN_POINT('',(-20.,0.,4.44089209850063E-15));
#1002=CARTESIAN_POINT('',(-20.,-4.44089209850063E-15,38.));
#1003=CARTESIAN_POINT('',(-20.,-4.65365783675994E-15,38.));
#1004=CARTESIAN_POINT('',(-20.,5.,38.));
#1005=CARTESIAN_POINT('',(-20.,5.,38.));
#1006=CARTESIAN_POINT('',(-20.,38.,5.00000000000002));
#1007=CARTESIAN_POINT('Origin',(0.,0.,0.));
#1008=CARTESIAN_POINT('',(20.,38.,7.19325249339923E-15));
#1009=CARTESIAN_POINT('',(2.58329903954909E-30,38.,1.16341445918999E-14));
#1010=CARTESIAN_POINT('',(20.,0.,-4.44089209850063E-15));
#1011=CARTESIAN_POINT('',(20.,0.,-4.44089209850063E-15));
#1012=CARTESIAN_POINT('',(0.,0.,0.));
#1013=CARTESIAN_POINT('Origin',(8.43769498715119E-15,-4.65365783675994E-15,
38.));
#1014=CARTESIAN_POINT('',(20.,-4.44089209850063E-15,38.));
#1015=CARTESIAN_POINT('',(20.,-4.65365783675994E-15,38.));
#1016=CARTESIAN_POINT('',(8.43769498715119E-15,-4.65365783675994E-15,38.));
#1017=CARTESIAN_POINT('Origin',(8.43769498715119E-15,5.,38.));
#1018=CARTESIAN_POINT('',(20.,5.,38.));
#1019=CARTESIAN_POINT('',(20.,5.,38.));
#1020=CARTESIAN_POINT('',(8.43769498715119E-15,5.,38.));
#1021=CARTESIAN_POINT('Origin',(1.11022302462516E-15,38.,5.00000000000001));
#1022=CARTESIAN_POINT('',(20.,38.,5.00000000000001));
#1023=CARTESIAN_POINT('',(20.,38.,5.00000000000001));
#1024=CARTESIAN_POINT('',(1.11022302462516E-15,38.,5.00000000000001));
#1025=CARTESIAN_POINT('Origin',(2.58329903954909E-30,38.,1.16341445918999E-14));
#1026=CARTESIAN_POINT('',(20.,38.,7.21644966006352E-15));
#1027=CARTESIAN_POINT('Origin',(20.,19.,19.));
#1028=UNCERTAINTY_MEASURE_WITH_UNIT(LENGTH_MEASURE(0.01),#1032,
'DISTANCE_ACCURACY_VALUE',
'Maximum model space distance between geometric entities at asserted c
onnectivities');
#1029=UNCERTAINTY_MEASURE_WITH_UNIT(LENGTH_MEASURE(0.01),#1032,
'DISTANCE_ACCURACY_VALUE',
'Maximum model space distance between geometric entities at asserted c
onnectivities');
#1030=(
GEOMETRIC_REPRESENTATION_CONTEXT(3)
GLOBAL_UNCERTAINTY_ASSIGNED_CONTEXT((#1028))
GLOBAL_UNIT_ASSIGNED_CONTEXT((#1032,#1034,#1035))
REPRESENTATION_CONTEXT('','3D')
);
#1031=(
GEOMETRIC_REPRESENTATION_CONTEXT(3)
GLOBAL_UNCERTAINTY_ASSIGNED_CONTEXT((#1029))
GLOBAL_UNIT_ASSIGNED_CONTEXT((#1032,#1034,#1035))
REPRESENTATION_CONTEXT('','3D')
);
#1032=(
LENGTH_UNIT()
NAMED_UNIT(*)
SI_UNIT(.MILLI.,.METRE.)
);
#1033=(
LENGTH_UNIT()
NAMED_UNIT(*)
SI_UNIT(.CENTI.,.METRE.)
);
#1034=(
NAMED_UNIT(*)
PLANE_ANGLE_UNIT()
SI_UNIT($,.RADIAN.)
);
#1035=(
NAMED_UNIT(*)
SI_UNIT($,.STERADIAN.)
SOLID_ANGLE_UNIT()
);
#1036=SHAPE_DEFINITION_REPRESENTATION(#1037,#1038);
#1037=PRODUCT_DEFINITION_SHAPE('',$,#1040);
#1038=SHAPE_REPRESENTATION('',(#640),#1030);
#1039=PRODUCT_DEFINITION_CONTEXT('part definition',#1044,'design');
#1040=PRODUCT_DEFINITION('CornerBracket','CornerBracket',#1041,#1039);
#1041=PRODUCT_DEFINITION_FORMATION('',$,#1046);
#1042=PRODUCT_RELATED_PRODUCT_CATEGORY('CornerBracket','CornerBracket',
(#1046));
#1043=APPLICATION_PROTOCOL_DEFINITION('international standard',
'automotive_design',2009,#1044);
#1044=APPLICATION_CONTEXT(
'Core Data for Automotive Mechanical Design Process');
#1045=PRODUCT_CONTEXT('part definition',#1044,'mechanical');
#1046=PRODUCT('CornerBracket','CornerBracket',$,(#1045));
#1047=PRESENTATION_STYLE_ASSIGNMENT((#1048));
#1048=SURFACE_STYLE_USAGE(.BOTH.,#1051);
#1049=SURFACE_STYLE_RENDERING_WITH_PROPERTIES($,#1055,(#1050));
#1050=SURFACE_STYLE_TRANSPARENT(0.);
#1051=SURFACE_SIDE_STYLE('',(#1052,#1049));
#1052=SURFACE_STYLE_FILL_AREA(#1053);
#1053=FILL_AREA_STYLE('',(#1054));
#1054=FILL_AREA_STYLE_COLOUR('',#1055);
#1055=COLOUR_RGB('',0.749019607843137,0.749019607843137,0.749019607843137);
ENDSEC;
END-ISO-10303-21;
